<svg xmlns="http://www.w3.org/2000/svg" viewBox="0 0 1400 980"><defs><style>.cls-1{fill:#674783;}.cls-2{fill:#493360;}.cls-3{fill:#523d6d;}.cls-4{fill:#7c55a5;}.cls-5{fill:#322147;}.cls-6{fill:#999998;}.cls-21,.cls-22,.cls-23,.cls-24,.cls-7{fill:none;}.cls-23,.cls-7{stroke:#999998;}.cls-7{stroke-miterlimit:10;stroke-width:9px;}.cls-8{fill:#27231f;}.cls-9{fill:#cececc;}.cls-10{fill:#bbbbba;}.cls-11{fill:#322c29;}.cls-12{fill:#999;}.cls-13{fill:#163545;}.cls-14{fill:#e8e8e6;}.cls-15{fill:#898888;}.cls-16{fill:#adadac;}.cls-17{fill:#c7493f;}.cls-18{fill:#fdf467;}.cls-19{fill:#4d9b8d;}.cls-20{fill:#2a231f;}.cls-21{stroke:#c7493f;}.cls-21,.cls-22,.cls-23,.cls-24{stroke-linecap:round;stroke-linejoin:round;}.cls-21,.cls-22{stroke-width:4px;}.cls-22{stroke:#cececc;}.cls-23{stroke-width:6px;}.cls-24{stroke:#285060;stroke-width:2px;}</style></defs><title>Vector_Back_To_The_Future_Car</title><g id="Background"><rect class="cls-1" width="1400" height="980"/><rect class="cls-2" y="193" width="121" height="787"/><rect class="cls-2" x="479.12" y="95" width="198.73" height="885"/><rect class="cls-2" x="224.1" y="161" width="198.73" height="819"/><rect class="cls-2" x="876.3" y="256.08" width="240.34" height="723.92"/><rect class="cls-2" x="1214.74" y="185.97" width="185.26" height="794.03"/><rect class="cls-3" x="85.14" y="366.39" width="172.14" height="613.61"/><rect class="cls-3" x="731.02" y="366.39" width="172.14" height="613.61"/><rect class="cls-3" x="363.32" y="247" width="198.72" height="733"/><rect class="cls-3" x="983.23" y="437.66" width="198.73" height="542.34"/><rect class="cls-3" x="1347.5" y="399.76" width="52.51" height="580.24"/><rect class="cls-3" y="734.71" width="1400" height="21.67"/><rect class="cls-4" x="770.19" y="172" width="121.09" height="28.55"/><rect class="cls-4" x="838.57" y="143.45" width="121.09" height="28.55"/><rect class="cls-4" x="884.63" y="172" width="121.09" height="28.55"/><rect class="cls-4" x="92.54" y="109.81" width="121.09" height="28.55"/><rect class="cls-4" x="160.92" y="81.26" width="121.09" height="28.55"/><rect class="cls-4" x="206.98" y="109.81" width="28.35" height="28.55"/><rect class="cls-4" x="462.08" y="345.76" width="121.09" height="28.55"/><rect class="cls-4" x="530.46" y="317.21" width="121.09" height="28.55"/><rect class="cls-4" x="576.52" y="345.76" width="28.35" height="28.55"/><rect class="cls-4" x="1099.77" y="317.21" width="121.09" height="28.55"/><rect class="cls-4" x="1168.15" y="288.66" width="121.09" height="28.55"/><rect class="cls-4" x="1214.21" y="317.21" width="28.35" height="28.55"/><rect class="cls-2" y="755.38" width="1400" height="224.62"/></g><g id="Car"><rect class="cls-5" x="251.99" y="803.13" width="896.02" height="10.5"/><rect class="cls-6" x="852.14" y="521.26" width="39.67" height="17.35"/><path class="cls-7" d="M908.15,536.61s36.49-41.9,150.08,12.75"/><path class="cls-7" d="M908.15,549.61s36.49-41.89,150.08,12.75"/><rect class="cls-8" x="1140.81" y="732" width="53" height="11.02"/><polygon class="cls-9" points="898.81 530.38 1025.73 551.36 1025.73 568.88 891.81 548.69 898.81 530.38"/><path class="cls-8" d="M488.23,739.38A74.25,74.25,0,1,1,414,665.13,74.25,74.25,0,0,1,488.23,739.38Z"/><path class="cls-8" d="M482.23,739.38A68.25,68.25,0,1,1,414,671.13,68.25,68.25,0,0,1,482.23,739.38Z"/><path class="cls-8" d="M467.23,739.38A53.25,53.25,0,1,1,414,686.13,53.25,53.25,0,0,1,467.23,739.38Z"/><path class="cls-8" d="M463,739.38a49,49,0,1,1-49-49A49,49,0,0,1,463,739.38Z"/><path class="cls-8" d="M433.55,739.38A19.57,19.57,0,1,1,414,719.81,19.57,19.57,0,0,1,433.55,739.38Z"/><path class="cls-8" d="M419.65,739.38a5.67,5.67,0,1,1-5.67-5.67A5.67,5.67,0,0,1,419.65,739.38Z"/><path class="cls-8" d="M416.84,727.21a2.86,2.86,0,1,1-2.86-2.86A2.86,2.86,0,0,1,416.84,727.21Z"/><path class="cls-8" d="M416.84,751.55A2.86,2.86,0,1,1,414,748.7,2.86,2.86,0,0,1,416.84,751.55Z"/><path class="cls-8" d="M426.15,742.24a2.86,2.86,0,1,1,2.86-2.86A2.86,2.86,0,0,1,426.15,742.24Z"/><path class="cls-8" d="M401.81,742.24a2.86,2.86,0,1,1,2.85-2.86A2.86,2.86,0,0,1,401.81,742.24Z"/><rect class="cls-8" x="412.51" y="695.27" width="2.93" height="16.71"/><rect class="cls-8" x="412.51" y="766.78" width="2.93" height="16.72"/><rect class="cls-8" x="369.87" y="737.91" width="16.71" height="2.94"/><rect class="cls-8" x="441.38" y="737.91" width="16.71" height="2.94"/><rect class="cls-8" x="387.23" y="705.74" width="2.93" height="16.72" transform="translate(-391.15 484.19) rotate(-45.01)"/><rect class="cls-8" x="437.8" y="756.31" width="2.93" height="16.71" transform="translate(-412.04 534.57) rotate(-45)"/><rect class="cls-8" x="380.34" y="763.2" width="16.71" height="2.93" transform="translate(-426.79 498.62) rotate(-44.99)"/><rect class="cls-8" x="430.91" y="712.63" width="16.71" height="2.93" transform="translate(-376.19 519.37) rotate(-44.97)"/><rect class="cls-8" x="399.07" y="697.89" width="2.94" height="16.72" transform="translate(-236.08 202.33) rotate(-22.08)"/><rect class="cls-8" x="425.96" y="764.16" width="2.94" height="16.72" transform="translate(-259.01 217.29) rotate(-22.08)"/><rect class="cls-8" x="372.49" y="751.36" width="16.71" height="2.94" transform="translate(-255.1 198.42) rotate(-22.08)"/><rect class="cls-8" x="438.76" y="724.47" width="16.71" height="2.94" transform="translate(-240.15 221.39) rotate(-22.09)"/><rect class="cls-8" x="379.58" y="717.1" width="2.94" height="16.71" transform="translate(-435.52 793.98) rotate(-67.09)"/><rect class="cls-8" x="445.45" y="744.95" width="2.94" height="16.71" transform="translate(-420.94 871.78) rotate(-67.09)"/><rect class="cls-8" x="391.7" y="770.85" width="16.71" height="2.94" transform="translate(-467.07 840.12) rotate(-67.09)"/><rect class="cls-8" x="419.55" y="704.98" width="16.71" height="2.93" transform="translate(-389.4 825.54) rotate(-67.09)"/><path class="cls-8" d="M1044.22,739.38A74.25,74.25,0,1,1,970,665.13,74.24,74.24,0,0,1,1044.22,739.38Z"/><path class="cls-8" d="M1038.22,739.38A68.25,68.25,0,1,1,970,671.13,68.25,68.25,0,0,1,1038.22,739.38Z"/><path class="cls-8" d="M1023.22,739.38A53.25,53.25,0,1,1,970,686.13,53.25,53.25,0,0,1,1023.22,739.38Z"/><path class="cls-8" d="M1019,739.38a49,49,0,1,1-49-49A49,49,0,0,1,1019,739.38Z"/><path class="cls-8" d="M989.54,739.38A19.57,19.57,0,1,1,970,719.81,19.57,19.57,0,0,1,989.54,739.38Z"/><path class="cls-8" d="M975.65,739.38a5.67,5.67,0,1,1-5.67-5.67A5.67,5.67,0,0,1,975.65,739.38Z"/><path class="cls-8" d="M972.83,727.21a2.86,2.86,0,1,1-2.85-2.86A2.86,2.86,0,0,1,972.83,727.21Z"/><path class="cls-8" d="M972.83,751.55A2.86,2.86,0,1,1,970,748.7,2.86,2.86,0,0,1,972.83,751.55Z"/><path class="cls-8" d="M982.15,742.24a2.86,2.86,0,1,1,2.86-2.86A2.86,2.86,0,0,1,982.15,742.24Z"/><path class="cls-8" d="M957.8,742.24a2.86,2.86,0,1,1,2.86-2.86A2.85,2.85,0,0,1,957.8,742.24Z"/><rect class="cls-8" x="968.51" y="695.27" width="2.93" height="16.71"/><rect class="cls-8" x="968.51" y="766.78" width="2.93" height="16.72"/><rect class="cls-8" x="925.86" y="737.91" width="16.71" height="2.94"/><rect class="cls-8" x="997.38" y="737.91" width="16.71" height="2.94"/><rect class="cls-8" x="943.23" y="705.74" width="2.93" height="16.72" transform="translate(-228.21 877.44) rotate(-45.01)"/><rect class="cls-8" x="993.79" y="756.31" width="2.93" height="16.71" transform="translate(-249.19 927.72) rotate(-45)"/><rect class="cls-8" x="936.34" y="763.2" width="16.71" height="2.93" transform="translate(-264.04 891.67) rotate(-44.99)"/><rect class="cls-8" x="986.9" y="712.63" width="16.71" height="2.93" transform="translate(-213.53 912.33) rotate(-44.97)"/><rect class="cls-8" x="955.07" y="697.89" width="2.94" height="16.72" transform="translate(-195.31 411.3) rotate(-22.08)"/><rect class="cls-8" x="981.95" y="764.16" width="2.94" height="16.72" transform="translate(-218.25 426.27) rotate(-22.08)"/><rect class="cls-8" x="928.49" y="751.36" width="16.71" height="2.94" transform="translate(-214.31 407.46) rotate(-22.08)"/><rect class="cls-8" x="994.75" y="724.47" width="16.71" height="2.94" transform="translate(-199.35 430.44) rotate(-22.09)"/><rect class="cls-8" x="935.58" y="717.1" width="2.94" height="16.71" transform="translate(-96 1306.11) rotate(-67.09)"/><rect class="cls-8" x="1001.44" y="744.95" width="2.94" height="16.71" transform="translate(-81.35 1383.93) rotate(-67.09)"/><rect class="cls-8" x="947.7" y="770.85" width="16.71" height="2.94" transform="translate(-127.55 1352.24) rotate(-67.09)"/><rect class="cls-8" x="975.54" y="704.98" width="16.71" height="2.93" transform="translate(-49.88 1337.66) rotate(-67.09)"/><polygon class="cls-8" points="903.7 774.57 1075.26 774.57 1120.71 702.15 1050.2 630.08 872.81 630.08 903.7 774.57"/><rect class="cls-10" x="1062.24" y="480.88" width="34.42" height="79" rx="5.67"/><polygon class="cls-11" points="1192.42 500.95 1201.69 558.54 1197.06 610.78 1157.6 618.82 1038.95 581.32 1192.42 500.95"/><rect class="cls-11" x="1050.2" y="542.83" width="58.5" height="52.12"/><rect class="cls-8" x="1068.81" y="551.36" width="5.33" height="20.81"/><rect class="cls-8" x="1079.45" y="551.36" width="5.33" height="20.81"/><rect class="cls-8" x="1089.78" y="551.36" width="5.33" height="20.81"/><rect class="cls-10" x="1025.73" y="551.36" width="36.5" height="24.98"/><polygon class="cls-8" points="1210.81 502.89 1221.19 567.38 1216 625.88 1171.81 634.88 1038.95 592.88 1210.81 502.89"/><rect class="cls-10" x="187.81" y="690.41" width="50" height="23.48"/><rect class="cls-12" x="178.81" y="685.13" width="59" height="8.77"/><rect class="cls-12" x="178.81" y="705.12" width="59" height="8.77"/><polygon class="cls-9" points="511.81 611 223.81 642.38 556.81 627 511.81 611"/><polygon class="cls-13" points="511.81 611 666.21 539.57 693.81 530.38 693.81 557 521.81 627 511.81 611"/><polygon class="cls-9" points="225.48 645.13 206.81 648.47 182.81 685.13 230.48 685.13 225.48 645.13"/><polygon class="cls-8" points="305.81 743.88 305.81 766.88 198.81 766.88 198.81 755.38 213.81 755.38 213.81 730.88 178.81 720.88 178.81 711.88 305.81 711.88 305.81 743.88"/><rect class="cls-8" x="887.35" y="648.43" width="193.91" height="90.95"/><polygon class="cls-8" points="499.72 648.43 295.81 648.43 305.81 766.88 480.23 774.57 499.72 648.43"/><path class="cls-8" d="M468.23,739.38A74.25,74.25,0,1,1,394,665.13,74.25,74.25,0,0,1,468.23,739.38Z"/><path class="cls-11" d="M462.23,739.38A68.25,68.25,0,1,1,394,671.13,68.25,68.25,0,0,1,462.23,739.38Z"/><path class="cls-14" d="M447.23,739.38A53.25,53.25,0,1,1,394,686.13,53.25,53.25,0,0,1,447.23,739.38Z"/><path class="cls-15" d="M443,739.38a49,49,0,1,1-49-49A49,49,0,0,1,443,739.38Z"/><path class="cls-14" d="M413.55,739.38A19.57,19.57,0,1,1,394,719.81,19.57,19.57,0,0,1,413.55,739.38Z"/><path class="cls-11" d="M399.65,739.38a5.67,5.67,0,1,1-5.67-5.67A5.67,5.67,0,0,1,399.65,739.38Z"/><path class="cls-11" d="M396.84,727.21a2.86,2.86,0,1,1-2.86-2.86A2.86,2.86,0,0,1,396.84,727.21Z"/><path class="cls-11" d="M396.84,751.55A2.86,2.86,0,1,1,394,748.7,2.86,2.86,0,0,1,396.84,751.55Z"/><path class="cls-11" d="M406.15,742.24a2.86,2.86,0,1,1,2.86-2.86A2.86,2.86,0,0,1,406.15,742.24Z"/><path class="cls-11" d="M381.8,742.24a2.86,2.86,0,1,1,2.86-2.86A2.86,2.86,0,0,1,381.8,742.24Z"/><rect class="cls-11" x="392.51" y="695.27" width="2.93" height="16.71"/><rect class="cls-11" x="392.51" y="766.78" width="2.93" height="16.72"/><rect class="cls-11" x="349.87" y="737.91" width="16.71" height="2.94"/><rect class="cls-11" x="421.38" y="737.91" width="16.71" height="2.94"/><rect class="cls-11" x="367.23" y="705.74" width="2.93" height="16.72" transform="translate(-397.01 470.05) rotate(-45.01)"/><rect class="cls-11" x="417.8" y="756.31" width="2.93" height="16.71" transform="translate(-417.9 520.43) rotate(-45)"/><rect class="cls-11" x="360.34" y="763.2" width="16.71" height="2.93" transform="translate(-432.64 484.48) rotate(-44.99)"/><rect class="cls-11" x="410.91" y="712.63" width="16.71" height="2.93" transform="translate(-382.04 505.23) rotate(-44.97)"/><rect class="cls-11" x="379.07" y="697.89" width="2.94" height="16.72" transform="translate(-237.55 194.81) rotate(-22.08)"/><rect class="cls-11" x="405.95" y="764.16" width="2.94" height="16.72" transform="translate(-260.48 209.77) rotate(-22.08)"/><rect class="cls-11" x="352.49" y="751.36" width="16.71" height="2.94" transform="translate(-256.57 190.9) rotate(-22.08)"/><rect class="cls-11" x="418.76" y="724.47" width="16.71" height="2.94" transform="translate(-241.6 213.85) rotate(-22.08)"/><rect class="cls-11" x="359.58" y="717.1" width="2.94" height="16.71" transform="translate(-447.74 775.56) rotate(-67.09)"/><rect class="cls-11" x="425.45" y="744.95" width="2.94" height="16.71" transform="translate(-433.15 853.38) rotate(-67.1)"/><rect class="cls-11" x="371.7" y="770.85" width="16.71" height="2.94" transform="translate(-479.29 821.68) rotate(-67.09)"/><rect class="cls-11" x="399.55" y="704.98" width="16.71" height="2.93" transform="translate(-401.61 807.12) rotate(-67.09)"/><path class="cls-8" d="M1064.23,739.38A74.25,74.25,0,1,1,990,665.13,74.25,74.25,0,0,1,1064.23,739.38Z"/><path class="cls-11" d="M1058.23,739.38A68.25,68.25,0,1,1,990,671.13,68.25,68.25,0,0,1,1058.23,739.38Z"/><path class="cls-14" d="M1043.23,739.38A53.25,53.25,0,1,1,990,686.13,53.25,53.25,0,0,1,1043.23,739.38Z"/><path class="cls-15" d="M1039,739.38a49,49,0,1,1-49-49A49,49,0,0,1,1039,739.38Z"/><path class="cls-14" d="M1009.55,739.38A19.57,19.57,0,1,1,990,719.81,19.57,19.57,0,0,1,1009.55,739.38Z"/><path class="cls-11" d="M995.65,739.38a5.67,5.67,0,1,1-5.67-5.67A5.67,5.67,0,0,1,995.65,739.38Z"/><path class="cls-11" d="M992.84,727.21a2.86,2.86,0,1,1-2.86-2.86A2.86,2.86,0,0,1,992.84,727.21Z"/><path class="cls-11" d="M992.84,751.55A2.86,2.86,0,1,1,990,748.7,2.86,2.86,0,0,1,992.84,751.55Z"/><path class="cls-11" d="M1002.15,742.24a2.86,2.86,0,1,1,2.86-2.86A2.86,2.86,0,0,1,1002.15,742.24Z"/><path class="cls-11" d="M977.8,742.24a2.86,2.86,0,1,1,2.86-2.86A2.86,2.86,0,0,1,977.8,742.24Z"/><rect class="cls-11" x="988.51" y="695.27" width="2.93" height="16.71"/><rect class="cls-11" x="988.51" y="766.78" width="2.93" height="16.72"/><rect class="cls-11" x="945.87" y="737.91" width="16.71" height="2.94"/><rect class="cls-11" x="1017.38" y="737.91" width="16.71" height="2.94"/><rect class="cls-11" x="963.23" y="705.74" width="2.93" height="16.72" transform="translate(-222.35 891.58) rotate(-45.01)"/><rect class="cls-11" x="1013.8" y="756.31" width="2.93" height="16.71" transform="translate(-243.34 941.86) rotate(-45)"/><rect class="cls-11" x="956.34" y="763.2" width="16.71" height="2.93" transform="translate(-258.18 905.81) rotate(-44.99)"/><rect class="cls-11" x="1006.91" y="712.63" width="16.71" height="2.93" transform="translate(-207.68 926.46) rotate(-44.97)"/><rect class="cls-11" x="975.07" y="697.89" width="2.94" height="16.72" transform="translate(-193.85 418.82) rotate(-22.08)"/><rect class="cls-11" x="1001.95" y="764.16" width="2.94" height="16.72" transform="translate(-216.78 433.78) rotate(-22.08)"/><rect class="cls-11" x="948.49" y="751.36" width="16.71" height="2.94" transform="translate(-212.84 414.98) rotate(-22.08)"/><rect class="cls-11" x="1014.76" y="724.47" width="16.71" height="2.94" transform="translate(-197.87 437.93) rotate(-22.08)"/><rect class="cls-11" x="955.58" y="717.1" width="2.94" height="16.71" transform="translate(-83.79 1324.53) rotate(-67.09)"/><rect class="cls-11" x="1021.45" y="744.95" width="2.94" height="16.71" transform="translate(-69.11 1402.38) rotate(-67.1)"/><rect class="cls-11" x="967.7" y="770.85" width="16.71" height="2.94" transform="translate(-115.34 1370.65) rotate(-67.09)"/><rect class="cls-11" x="995.55" y="704.98" width="16.71" height="2.93" transform="translate(-37.66 1356.1) rotate(-67.09)"/><path class="cls-10" d="M1200.81,607.38c-55-27-302-69-302-69v-8h-205l-173,87-297,25v81l69.13,16h14.79a86.25,86.25,0,0,1,172.5,0h423.5a86.25,86.25,0,0,1,172.5,0h8.58l88-20v-54h38Z"/><polygon class="cls-16" points="1171.81 669.13 1062.24 671.13 1083.25 724.35 1172.81 700 1171.81 669.13"/><polygon class="cls-16" points="483.85 716.48 488.82 739.38 896.81 739.38 911.54 693.57 483.85 716.48"/><rect class="cls-8" x="945.87" y="618.82" width="6.17" height="29.62"/><rect class="cls-9" x="765.31" y="669.13" width="28" height="9.37"/><rect class="cls-8" x="452.12" y="663.57" width="469.62" height="7"/><rect class="cls-8" x="480.23" y="737.91" width="423.48" height="36.66"/><polygon class="cls-8" points="1075.26 774.57 1193.81 721.57 1193.81 693.57 1075.26 726.57 1075.26 774.57"/><polygon class="cls-8" points="1212.81 663.57 1207.81 703.57 1171.81 723.57 1171.81 663.57 1212.81 663.57"/><rect class="cls-8" x="1050.2" y="663.57" width="130.62" height="7"/><rect class="cls-17" x="1111.95" y="663.57" width="51.2" height="7.56"/><polygon class="cls-10" points="1115.44 660.77 1129.48 680.42 1158.8 674.77 1145.88 652.28 1115.44 660.77"/><path class="cls-9" d="M903.73,739.38a86.25,86.25,0,0,1,172.5,0h8.58L1091,738a101,101,0,0,0-202.08,1.41h14.8Z"/><path class="cls-9" d="M307.74,739.38a86.25,86.25,0,1,1,172.49,0h8.59L495,738a101,101,0,0,0-202.08,1.41h14.8Z"/><polygon class="cls-13" points="841.81 548.69 841.81 615.69 563.81 621.69 563.81 615.69 693.81 548.69 841.81 548.69"/><rect class="cls-12" x="223.81" y="685.13" width="17.5" height="26.37"/><rect class="cls-11" x="241.31" y="685.13" width="51.63" height="26.37"/><rect class="cls-12" x="250.81" y="685.13" width="32.63" height="19.98"/><rect class="cls-18" x="256.15" y="693.91" width="21.92" height="5.86"/><rect class="cls-11" x="267.13" y="674.33" width="10.94" height="10.8"/><rect class="cls-11" x="283.44" y="679.73" width="5.47" height="5.4"/><polygon class="cls-11" points="213.81 755.38 267.13 755.38 213.81 742.24 213.81 755.38"/><polygon class="cls-8" points="908.15 551.36 923.48 612.69 1129.48 612.69 1129.48 598.69 908.15 551.36"/><rect class="cls-11" x="932.15" y="578.69" width="63" height="28.48"/><rect class="cls-18" x="1171.81" y="538.61" width="29.88" height="25.5"/><polygon class="cls-9" points="1171.81 596.59 1171.81 663.57 1212.81 663.57 1200.81 607.38 1171.81 596.59"/><path class="cls-19" d="M1063.39,592.86c0,1.75-2,3.17-4.5,3.17H931.4c-2.49,0-4.5-1.42-4.5-3.17h0c0-1.75,2-3.17,4.5-3.17h127.49c2.49,0,4.5,1.42,4.5,3.17Z"/><path class="cls-19" d="M1063.39,604c0,1.75-2,3.17-4.5,3.17H931.4c-2.49,0-4.5-1.42-4.5-3.17h0c0-1.75,2-3.17,4.5-3.17h127.49c2.49,0,4.5,1.42,4.5,3.17Z"/><path class="cls-11" d="M1096.66,492.5s-41.66,35,0,35Z"/><path class="cls-11" d="M1074.14,491a2.67,2.67,0,1,1-2.66-2.67A2.66,2.66,0,0,1,1074.14,491Z"/><polygon class="cls-10" points="1096.66 530.38 1062.24 530.38 1050.2 542.83 1108.69 542.83 1096.66 530.38"/><polygon class="cls-20" points="520.81 617.38 563.81 739.38 566.48 739.33 522.16 616.7 520.81 617.38"/><rect class="cls-20" x="857.81" y="530.38" width="1.92" height="86.32"/><polygon class="cls-20" points="857.81 616.7 774.44 738.75 776.7 739.08 859.73 616.7 857.81 616.7"/><polygon class="cls-11" points="592.32 601 599.48 620.92 563.81 621.69 563.81 615.69 592.32 601"/><rect class="cls-17" x="974.48" y="576.33" width="9.83" height="13.36"/><rect class="cls-17" x="951.15" y="576.33" width="4.91" height="13.36"/><polygon class="cls-11" points="1111.95 594.94 1129.48 598.69 1129.48 612.69 1111.95 612.69 1111.95 594.94"/><polygon class="cls-11" points="885.81 548.69 891.81 548.69 908.15 612.69 895.29 614.58 883.81 607.17 885.81 548.69"/><path class="cls-15" d="M841.81,759a5.25,5.25,0,0,1-5.25,5.25H526.06a5.25,5.25,0,0,1-5.25-5.25h0a5.25,5.25,0,0,1,5.25-5.25h310.5a5.25,5.25,0,0,1,5.25,5.25Z"/><rect class="cls-8" x="596.81" y="611.38" width="16.5" height="14.31"/><path class="cls-8" d="M629.81,611a5.67,5.67,0,0,1-5.67,5.67H597.48a5.67,5.67,0,0,1-5.67-5.67V600a5.67,5.67,0,0,1,5.67-5.67l26.66-3a5.67,5.67,0,0,1,5.67,5.67Z"/><polygon class="cls-8" points="1115.44 747.36 1141.52 767.36 1166.18 747.36 1151.52 730.03 1115.44 747.36"/><path class="cls-21" d="M948.78,647.09s-59.85,24-59.85,92.29c0,0,5.88,19.57-47.12,19.57"/><path class="cls-22" d="M863.81,530.38v95.31s1,12.64,18,12.64h182.42s26.29-2.76,47.72,18.67,46.22,80.51,46.22,80.51"/><path class="cls-22" d="M883.81,530.38v72.31s1,12.64,18,12.64h182.42s26.29-2.76,47.72,18.67,50.47,92.67,50.47,92.67"/><rect class="cls-9" x="841.81" y="512.5" width="58.5" height="12" rx="5.67"/><path class="cls-23" d="M926.9,576.33s27.92-23,87.92,6.68,100.62-9.47,100.62-9.47"/><path class="cls-23" d="M926.9,566.33s27.92-23,87.92,6.68,100.62-9.47,100.62-9.47"/><path class="cls-23" d="M272.6,679.73s-5.63-12.38,20.34-12.38,62.22-29,101.05-29,101,30,101,99.64c0,0,.79,21,25.79,21"/><path class="cls-8" d="M841.81,582s-20.61-1.7-24.73,9.27c-4.77,12.71-9.26,25.13-9.26,25.13l34-.73Z"/><path class="cls-24" d="M795,616.7s-12.16-31.51-28.82-31.51H699.48l-48.35,34.62"/><path class="cls-23" d="M292.94,690.41s11.54.83,11.54,7.54-11.54,7.17-11.54,7.17"/></g></svg>